<?xml version="1.0" encoding="utf-8"?>
<!-- Generator: Adobe Illustrator 19.1.0, SVG Export Plug-In . SVG Version: 6.00 Build 0)  -->
<svg version="1.1" id="Layer_1" xmlns="http://www.w3.org/2000/svg" xmlns:xlink="http://www.w3.org/1999/xlink" x="0px" y="0px"
	 viewBox="0 0 739.517 161.727" style="enable-background:new 0 0 739.517 161.727;" xml:space="preserve">
<style type="text/css">
	.st0{fill:#FFCC33;}
	.st1{fill:#FF3366;}
	.st2{fill:#66CC66;}
	.st3{fill:#3366CC;}
	.st4{fill:#999999;}
	.st5{fill:#0099FF;}
</style>
<g>
	<path class="st5" d="M738.097,112.685c0.228,0,0.43-0.075,0.616-0.178c0.563-0.138,0.991-0.623,0.991-1.23
		c0-0.712-0.578-1.29-1.29-1.29h-89.132c-7.076,0.011-12.833,5.775-12.833,12.846c0,6.814,5.343,12.394,12.066,12.807v2.717h-0.793
		c-7.831,0-14.203-6.373-14.203-14.204c0-0.713-0.577-1.29-1.289-1.29c-0.713,0-1.29,0.577-1.29,1.29
		c0,9.255,7.529,16.784,16.782,16.784h0.793v5.519c0,0.487,0.271,0.93,0.706,1.151c0.184,0.093,0.384,0.139,0.585,0.139
		c0.267,0,0.534-0.083,0.758-0.247l6.363-4.63l6.363,4.63c0.394,0.286,0.912,0.327,1.345,0.108c0.433-0.221,0.705-0.665,0.705-1.151
		v-5.519h73.074c0.712,0,1.29-0.577,1.29-1.291c0-0.711-0.578-1.289-1.29-1.289H665.34v-2.677h73.074c0.712,0,1.29-0.577,1.29-1.29
		c0-0.608-0.429-1.094-0.994-1.231c-0.185-0.102-0.387-0.176-0.613-0.176c-5.595,0-10.147-4.553-10.147-10.151
		C727.95,117.237,732.502,112.685,738.097,112.685z M662.76,143.92l-5.073-3.691c-0.227-0.165-0.493-0.247-0.759-0.247
		c-0.268,0-0.533,0.082-0.76,0.247l-5.071,3.69v-22.73h11.664V143.92z M725.37,122.832c0,4.216,2.067,7.948,5.232,10.267H665.34
		v-5.034h57.751c0.714,0,1.291-0.578,1.291-1.291c0-0.712-0.577-1.289-1.291-1.289H665.34v-5.586c0-0.713-0.578-1.291-1.291-1.291
		h-14.243c-0.713,0-1.291,0.578-1.291,1.291v13.161c-5.295-0.404-9.486-4.833-9.486-10.227c0-5.65,4.601-10.256,10.261-10.265
		h81.313C727.438,114.885,725.37,118.617,725.37,122.832z"/>
	<path class="st5" d="M665.067,92.706h58.025c0.714,0,1.291-0.578,1.291-1.291c0-0.712-0.577-1.29-1.291-1.29h-58.025
		c-0.713,0-1.29,0.578-1.29,1.29C663.776,92.128,664.353,92.706,665.067,92.706z"/>
	<path class="st5" d="M738.097,77.327c0.228,0,0.431-0.075,0.616-0.178c0.563-0.138,0.991-0.623,0.991-1.229
		c0-0.713-0.578-1.291-1.29-1.291h-89.132c-7.076,0.011-12.833,5.775-12.833,12.846c0,7.075,5.756,12.837,12.841,12.846h89.124
		c0.712,0,1.29-0.577,1.29-1.29c0-0.607-0.429-1.093-0.994-1.23c-0.185-0.102-0.387-0.176-0.613-0.176
		c-5.595,0-10.147-4.554-10.147-10.15C727.95,81.879,732.502,77.327,738.097,77.327z M725.37,87.474
		c0,4.216,2.067,7.948,5.232,10.266h-81.316c-5.655-0.008-10.256-4.614-10.256-10.266c0-5.651,4.601-10.256,10.261-10.265h81.313
		C727.438,79.526,725.37,83.259,725.37,87.474z"/>
	<path class="st5" d="M738.415,102.997h-90.692c-7.831,0-14.203-6.373-14.203-14.204c0-0.712-0.577-1.29-1.289-1.29
		c-0.713,0-1.29,0.578-1.29,1.29c0,9.256,7.529,16.785,16.782,16.785h90.692c0.712,0,1.29-0.577,1.29-1.29
		C739.704,103.575,739.127,102.997,738.415,102.997z"/>
	<path class="st5" d="M658.131,51.732l2.168-0.015v9.727c0,1.561,1.27,2.831,2.832,2.831h12.558v2.878
		c0,1.561,1.271,2.831,2.832,2.831h18.097c1.561,0,2.831-1.269,2.831-2.831v-2.878h13.572c1.561,0,2.83-1.27,2.83-2.831V51.55
		l2.188-0.016c0.311-0.002,0.61-0.127,0.832-0.348c1.103-1.104,1.103-2.898,0-4.001l-11.993-11.993
		c-0.001-0.001-0.001-0.002-0.002-0.003l-1.125-1.125l1.817-1.818c0.464-0.464,0.464-1.217,0-1.68c-0.464-0.464-1.215-0.464-1.68,0
		l-1.817,1.818l-1.818-1.818c-0.464-0.464-1.216-0.464-1.679,0c-0.465,0.463-0.465,1.216,0,1.68l1.818,1.819l-0.321,0.321
		l-9.055,9.054l-2.541-2.541c0,0-0.001-0.001-0.001-0.002l-1.124-1.124l1.817-1.818c0.463-0.465,0.463-1.216,0-1.68
		c-0.465-0.463-1.216-0.463-1.681,0l-1.817,1.818l-1.818-1.818c-0.464-0.463-1.216-0.463-1.681,0c-0.463,0.465-0.463,1.216,0,1.68
		l1.819,1.818l-0.321,0.321l-2.84,2.84l-8.549-8.549c0,0-0.001-0.001-0.001-0.001l-0.319-0.319l1.817-1.819
		c0.463-0.464,0.463-1.217,0-1.68c-0.464-0.464-1.216-0.464-1.68,0l-1.817,1.818l-1.818-1.818c-0.465-0.464-1.215-0.464-1.679,0
		c-0.465,0.463-0.465,1.216,0,1.68l1.817,1.818l-0.321,0.321l-12.997,12.997c-1.1,1.101-1.101,2.897,0,4.001
		C657.505,51.61,657.812,51.716,658.131,51.732z M703.749,36.067c0.116-0.115,0.25-0.133,0.322-0.133
		c0.068,0,0.202,0.019,0.318,0.131l0.805,0.805c0.001,0.001,0.003,0.001,0.004,0.002l11.991,11.992
		c0.104,0.104,0.129,0.225,0.132,0.299l-2.667,0.019c-0.653,0.004-1.179,0.535-1.179,1.188v11.074c0,0.251-0.204,0.455-0.454,0.455
		h-13.572v-4.641l2.188-0.016c0.312-0.002,0.61-0.128,0.832-0.348c1.104-1.104,1.104-2.897,0-4.001l-7.772-7.773L703.749,36.067z
		 M687.35,41.775c0.115-0.114,0.249-0.132,0.32-0.132c0.07,0,0.205,0.018,0.321,0.132l12.798,12.798
		c0.103,0.104,0.128,0.224,0.132,0.298l-2.668,0.019c-0.652,0.005-1.179,0.536-1.179,1.188v11.075c0,0.251-0.204,0.455-0.455,0.455
		h-18.097c-0.251,0-0.456-0.204-0.456-0.455V56.229c0-0.316-0.125-0.62-0.351-0.843c-0.223-0.221-0.524-0.345-0.837-0.345h-0.008
		l-2.649,0.02c0.008-0.105,0.051-0.209,0.13-0.289L687.35,41.775z M658.963,49.063l12.994-12.993
		c0.001-0.001,0.002-0.001,0.003-0.002l0.002-0.002c0.115-0.112,0.248-0.131,0.317-0.131c0.07,0,0.204,0.018,0.32,0.132l0.804,0.805
		c0.001,0.001,0.002,0.001,0.002,0.001l7.744,7.744l-8.478,8.477c-1.101,1.103-1.101,2.897,0,4.001
		c0.225,0.225,0.529,0.353,0.85,0.349l2.169-0.016V61.9h-12.558c-0.251,0-0.456-0.204-0.456-0.455V50.52
		c0-0.317-0.126-0.619-0.352-0.843c-0.222-0.221-0.524-0.345-0.836-0.345h-0.009l-2.647,0.019
		C658.839,49.247,658.882,49.142,658.963,49.063z"/>
	<path class="st5" d="M684.687,57.298h5.767c0.656,0,1.188-0.532,1.188-1.188c0-0.657-0.532-1.189-1.188-1.189h-5.767
		c-0.656,0-1.189,0.532-1.189,1.189C683.498,56.766,684.031,57.298,684.687,57.298z"/>
	<path class="st5" d="M123.457,67.309H93.683v-6.326c0-0.713-0.577-1.29-1.29-1.29c-0.712,0-1.29,0.577-1.29,1.29v6.326h-4.192
		c-3.709,0-6.729,3.018-6.729,6.727v71.583c0,3.709,3.02,6.727,6.729,6.727h36.546c3.709,0,6.726-3.018,6.726-6.727V74.036
		C130.184,70.327,127.166,67.309,123.457,67.309z M127.604,145.619c0,2.287-1.86,4.146-4.146,4.146H86.911
		c-2.287,0-4.148-1.859-4.148-4.146V74.036c0-2.287,1.861-4.147,4.148-4.147h36.546c2.286,0,4.146,1.86,4.146,4.147V145.619z"/>
	<path class="st5" d="M120.166,77.878H90.202c-2.21,0-4.009,1.799-4.009,4.009v28.845c0,2.211,1.799,4.01,4.009,4.01h29.964
		c2.211,0,4.009-1.799,4.009-4.01V81.886C124.175,79.677,122.377,77.878,120.166,77.878z M121.594,110.731
		c0,0.789-0.641,1.429-1.428,1.429H90.202c-0.788,0-1.428-0.64-1.428-1.429V81.886c0-0.787,0.641-1.429,1.428-1.429h29.964
		c0.788,0,1.428,0.641,1.428,1.429V110.731z"/>
	<path class="st5" d="M119.333,121.497h-5.012c-0.713,0-1.29,0.577-1.29,1.29c0,0.713,0.577,1.29,1.29,1.29h5.012
		c0.713,0,1.291-0.577,1.291-1.29C120.624,122.074,120.047,121.497,119.333,121.497z"/>
	<path class="st5" d="M107.691,121.497h-5.012c-0.713,0-1.291,0.577-1.291,1.29c0,0.713,0.577,1.29,1.291,1.29h5.012
		c0.713,0,1.291-0.577,1.291-1.29C108.981,122.074,108.403,121.497,107.691,121.497z"/>
	<path class="st5" d="M96.047,121.497h-5.013c-0.712,0-1.29,0.577-1.29,1.29c0,0.713,0.577,1.29,1.29,1.29h5.013
		c0.711,0,1.29-0.577,1.29-1.29C97.337,122.074,96.758,121.497,96.047,121.497z"/>
	<path class="st5" d="M119.333,129.425h-5.012c-0.713,0-1.29,0.578-1.29,1.291c0,0.712,0.577,1.291,1.29,1.291h5.012
		c0.713,0,1.291-0.579,1.291-1.291C120.624,130.003,120.047,129.425,119.333,129.425z"/>
	<path class="st5" d="M107.691,129.425h-5.012c-0.713,0-1.291,0.578-1.291,1.291c0,0.712,0.577,1.291,1.291,1.291h5.012
		c0.713,0,1.291-0.579,1.291-1.291C108.981,130.003,108.403,129.425,107.691,129.425z"/>
	<path class="st5" d="M96.047,129.425h-5.013c-0.712,0-1.29,0.578-1.29,1.291c0,0.712,0.577,1.291,1.29,1.291h5.013
		c0.711,0,1.29-0.579,1.29-1.291C97.337,130.003,96.758,129.425,96.047,129.425z"/>
	<path class="st5" d="M119.333,137.127h-5.012c-0.713,0-1.29,0.577-1.29,1.29c0,0.713,0.577,1.29,1.29,1.29h5.012
		c0.713,0,1.291-0.578,1.291-1.29C120.624,137.704,120.047,137.127,119.333,137.127z"/>
	<path class="st5" d="M107.691,137.127h-5.012c-0.713,0-1.291,0.577-1.291,1.29c0,0.713,0.577,1.29,1.291,1.29h5.012
		c0.713,0,1.291-0.578,1.291-1.29C108.981,137.704,108.403,137.127,107.691,137.127z"/>
	<path class="st5" d="M96.047,137.127h-5.013c-0.712,0-1.29,0.577-1.29,1.29c0,0.713,0.577,1.29,1.29,1.29h5.013
		c0.711,0,1.29-0.578,1.29-1.29C97.337,137.704,96.758,137.127,96.047,137.127z"/>
	<path class="st5" d="M62.007,33.64H22.093c-0.713,0-1.29,0.578-1.29,1.29c0,0.713,0.577,1.291,1.29,1.291h39.914
		c0.712,0,1.29-0.577,1.29-1.291C63.297,34.218,62.719,33.64,62.007,33.64z"/>
	<path class="st5" d="M62.007,40.178H22.093c-0.713,0-1.29,0.579-1.29,1.291c0,0.713,0.577,1.291,1.29,1.291h39.914
		c0.712,0,1.29-0.577,1.29-1.291C63.297,40.756,62.719,40.178,62.007,40.178z"/>
	<path class="st5" d="M62.007,46.715H22.093c-0.713,0-1.29,0.578-1.29,1.291c0,0.712,0.577,1.289,1.29,1.289h39.914
		c0.712,0,1.29-0.577,1.29-1.289C63.297,47.293,62.719,46.715,62.007,46.715z"/>
	<path class="st5" d="M165.258,72.149c-0.007-0.01-0.012-0.021-0.02-0.031c-1.824-2.601-4.472-4.468-7.575-5.304
		c-1.161-0.312-2.354-0.471-3.545-0.471c-6.127,0-11.52,4.136-13.116,10.058c-1.948,7.236,2.353,14.711,9.589,16.662
		c1.16,0.312,2.351,0.47,3.541,0.47c6.128,0,11.522-4.136,13.118-10.058c0.944-3.506,0.467-7.17-1.344-10.317
		C165.705,72.81,165.486,72.476,165.258,72.149z M143.494,77.074c1.292-4.798,5.661-8.149,10.624-8.149
		c0.964,0,1.931,0.128,2.874,0.382c1.91,0.515,3.601,1.518,4.955,2.891l-18.474,4.977C143.481,77.142,143.485,77.108,143.494,77.074
		z M164.759,82.804c-1.293,4.798-5.664,8.149-10.627,8.149c-0.964,0-1.929-0.128-2.87-0.382c-4.904-1.321-8.132-5.778-8.135-10.631
		l20.521-5.527c0.007,0.011,0.015,0.022,0.021,0.033C165.137,76.996,165.523,79.964,164.759,82.804z"/>
	<path class="st5" d="M154.126,96.423c-7.114,0-12.93,5.591-13.326,12.608c-0.01,0.065-0.038,0.123-0.038,0.19v39.289
		c0,1.4,1.139,2.541,2.539,2.541l0,0l0,0h5.202v9.762c0,0.713,0.578,1.29,1.292,1.29c0.712,0,1.29-0.577,1.29-1.29v-9.762h6.71
		v9.762c0,0.713,0.577,1.29,1.291,1.29c0.712,0,1.29-0.577,1.29-1.29v-9.762h5.202c0.509,0,0.938-0.3,1.148-0.727
		c0.472-0.462,0.767-1.103,0.767-1.814v-39.289c0-0.067-0.028-0.125-0.038-0.19C167.058,102.014,161.24,96.423,154.126,96.423z
		 M164.912,148.47h-21.569v-38.682c0-5.946,4.837-10.784,10.783-10.784c5.947,0,10.786,4.837,10.786,10.784V148.47z"/>
	<path class="st5" d="M69.061,16.981c6.688,0,12.129,5.441,12.129,12.128c0,0.712,0.578,1.29,1.289,1.29
		c0.713,0,1.291-0.578,1.291-1.29c0-8.11-6.599-14.71-14.71-14.71c-0.713,0-1.29,0.578-1.29,1.292
		C67.77,16.403,68.348,16.981,69.061,16.981z"/>
	<path class="st5" d="M70.421,9.888c10.055,0,18.235,8.18,18.235,18.236c0,0.713,0.578,1.291,1.291,1.291s1.29-0.578,1.29-1.291
		c0-11.478-9.338-20.817-20.816-20.817c-0.713,0-1.291,0.578-1.291,1.29C69.131,9.311,69.708,9.888,70.421,9.888z"/>
	<path class="st5" d="M265.812,87.451c0.796-1.197,1.414-2.532,1.803-3.976c0.944-3.506,0.467-7.17-1.344-10.317
		c-0.201-0.35-0.421-0.685-0.65-1.012c-0.006-0.009-0.011-0.019-0.017-0.027c-1.824-2.602-4.472-4.468-7.577-5.305
		c-1.161-0.312-2.354-0.471-3.545-0.471c-6.126,0-11.52,4.136-13.115,10.058c-1.071,3.975-0.247,8.017,1.906,11.181l-2.908,2.907
		c-0.504,0.502-0.504,1.32-0.001,1.824c0.253,0.252,0.583,0.378,0.913,0.378s0.66-0.126,0.913-0.378l2.737-2.737
		c1.622,1.615,3.664,2.849,6.028,3.486c1.16,0.313,2.351,0.47,3.542,0.47c3.729,0,7.181-1.538,9.676-4.072l2.852,2.853
		c0.252,0.252,0.583,0.379,0.912,0.379c0.33,0,0.66-0.127,0.912-0.379c0.505-0.503,0.505-1.32,0-1.824L265.812,87.451z
		 M243.859,77.074c1.293-4.798,5.661-8.149,10.623-8.149c0.964,0,1.931,0.128,2.873,0.382c1.911,0.515,3.602,1.518,4.956,2.891
		l-18.474,4.978C243.846,77.142,243.85,77.108,243.859,77.074z M265.124,82.804c-1.293,4.798-5.663,8.148-10.627,8.148
		c-0.964,0-1.93-0.127-2.87-0.382c-4.906-1.322-8.133-5.777-8.135-10.63l20.521-5.527c0.007,0.011,0.015,0.022,0.021,0.033
		C265.501,76.996,265.888,79.964,265.124,82.804z"/>
	<path class="st5" d="M267.857,144.986v-35.198v0c0,0,0-0.001,0-0.001v-0.566c0-0.067-0.028-0.125-0.038-0.19
		c-0.396-7.017-6.213-12.609-13.328-12.609c-2.643,0-5.102,0.781-7.178,2.11c0.637,0.598,1.216,1.255,1.729,1.964
		c1.602-0.943,3.46-1.494,5.45-1.494c5.948,0,10.786,4.838,10.786,10.786v0.001v35.387c0,0.064,0.027,0.118,0.036,0.179
		c0.009,0.064-0.001,0.127,0.018,0.191l0.875,2.924h-0.088h-20.627h-2.562l0.74-2.984c0.013-0.051,0-0.099,0.007-0.15
		c0.007-0.055,0.032-0.104,0.032-0.161v-3.862c-0.82,0.389-1.682,0.698-2.581,0.918v2.786l-1.101,4.431
		c-0.096,0.385-0.009,0.792,0.236,1.106c0.245,0.312,0.62,0.496,1.017,0.496h4.212h3.066v9.761c0,0.712,0.578,1.291,1.29,1.291
		c0.712,0,1.29-0.578,1.29-1.291v-9.761h6.711v9.761c0,0.712,0.577,1.291,1.29,1.291c0.713,0,1.291-0.578,1.291-1.291v-9.761h5.69
		h1.821c0.408,0,0.792-0.194,1.035-0.52c0.244-0.327,0.318-0.751,0.2-1.141L267.857,144.986z"/>
	<path class="st5" d="M249.284,128.187v-19.338c0-6.973-5.672-12.646-12.645-12.646h-5.727V90.69c0-0.483-0.271-0.927-0.701-1.147
		c-0.432-0.222-0.948-0.183-1.342,0.1l-9.125,6.56h-26.235c-6.973,0-12.645,5.672-12.645,12.646v19.338
		c0,6.971,5.672,12.645,12.645,12.645h43.131C243.612,140.832,249.284,135.158,249.284,128.187z M236.64,138.25h-43.131
		c-5.55,0-10.064-4.515-10.064-10.063v-19.338c0-5.55,4.514-10.064,10.064-10.064h26.65c0.272,0,0.535-0.086,0.754-0.243
		l7.419-5.333v4.285c0,0.713,0.578,1.291,1.291,1.291h7.017c5.55,0,10.065,4.514,10.065,10.064v19.338
		C246.704,133.736,242.19,138.25,236.64,138.25z"/>
	<path class="st5" d="M63.616,20.999H20.485c-6.973,0-12.645,5.674-12.645,12.645v19.339c0,6.973,5.672,12.646,12.645,12.646H46.72
		l9.125,6.56c0.394,0.283,0.91,0.323,1.342,0.1c0.43-0.22,0.701-0.664,0.701-1.147v-5.513h5.727c6.972,0,12.645-5.672,12.645-12.646
		V33.644C76.261,26.673,70.588,20.999,63.616,20.999z M73.681,33.644v19.339c0,5.55-4.515,10.064-10.065,10.064h-7.017
		c-0.713,0-1.291,0.578-1.291,1.291v4.285L47.89,63.29c-0.22-0.157-0.483-0.243-0.754-0.243h-26.65
		c-5.55,0-10.064-4.514-10.064-10.064V33.644c0-5.549,4.514-10.063,10.064-10.063h43.131C69.166,23.58,73.681,28.095,73.681,33.644z
		"/>
	<path class="st5" d="M234.574,107.504h-39.913c-0.713,0-1.29,0.577-1.29,1.29c0,0.713,0.577,1.29,1.29,1.29h39.913
		c0.713,0,1.29-0.578,1.29-1.29C235.865,108.081,235.287,107.504,234.574,107.504z"/>
	<path class="st5" d="M234.574,114.042h-39.913c-0.713,0-1.29,0.578-1.29,1.291c0,0.711,0.577,1.29,1.29,1.29h39.913
		c0.713,0,1.29-0.578,1.29-1.29C235.865,114.62,235.287,114.042,234.574,114.042z"/>
	<path class="st5" d="M234.574,120.578h-39.913c-0.713,0-1.29,0.578-1.29,1.291c0,0.712,0.577,1.29,1.29,1.29h39.913
		c0.713,0,1.29-0.578,1.29-1.29C235.865,121.156,235.287,120.578,234.574,120.578z"/>
	<path class="st5" d="M221.122,127.068h-26.461c-0.713,0-1.29,0.577-1.29,1.29c0,0.712,0.577,1.291,1.29,1.291h26.461
		c0.713,0,1.289-0.579,1.289-1.291C222.411,127.645,221.835,127.068,221.122,127.068z"/>
	<path class="st5" d="M240.234,28.481c-1.372,5.093,0.191,10.404,4.076,13.939l2.778,6.732c0.2,0.483,0.671,0.798,1.194,0.798
		h10.603c0.506,0,0.966-0.296,1.175-0.756l3.13-6.877c1.915-1.777,3.285-4.048,3.966-6.584c2-7.421-2.412-15.086-9.833-17.088
		c-1.19-0.32-2.413-0.482-3.634-0.482C247.405,18.163,241.871,22.406,240.234,28.481z M264.665,35.062
		c-0.576,2.141-1.75,4.049-3.397,5.516c-0.134,0.119-0.242,0.265-0.316,0.428l-2.896,6.363h-3.102V42.95
		c0-0.713-0.578-1.29-1.291-1.29c-0.712,0-1.29,0.577-1.29,1.29v4.419h-3.225l-2.563-6.207c-0.077-0.185-0.194-0.349-0.345-0.481
		c-3.306-2.879-4.652-7.296-3.512-11.529c1.335-4.95,5.842-8.408,10.963-8.408c0.996,0,1.991,0.132,2.962,0.394
		C262.699,22.767,266.295,29.014,264.665,35.062z"/>
	<path class="st5" d="M253.662,8.666c0.713,0,1.291-0.578,1.291-1.29v-5.71c0-0.712-0.578-1.291-1.291-1.291
		c-0.712,0-1.29,0.579-1.29,1.291v5.71C252.372,8.088,252.95,8.666,253.662,8.666z"/>
	<path class="st5" d="M256.551,51.379h-5.71c-0.712,0-1.291,0.578-1.291,1.291c0,0.712,0.578,1.291,1.291,1.291h5.71
		c0.712,0,1.29-0.578,1.29-1.291C257.841,51.957,257.263,51.379,256.551,51.379z"/>
	<path class="st5" d="M256.551,54.992h-5.71c-0.712,0-1.291,0.577-1.291,1.289c0,0.713,0.578,1.29,1.291,1.29h5.71
		c0.712,0,1.29-0.577,1.29-1.29C257.841,55.569,257.263,54.992,256.551,54.992z"/>
	<path class="st5" d="M241.343,10.865c0.238,0.413,0.672,0.645,1.118,0.645c0.219,0,0.441-0.056,0.644-0.173
		c0.617-0.356,0.828-1.145,0.472-1.762l-2.855-4.943c-0.356-0.618-1.146-0.831-1.762-0.473c-0.618,0.357-0.829,1.147-0.472,1.763
		L241.343,10.865z"/>
	<path class="st5" d="M228.59,16.55l4.946,2.854c0.204,0.118,0.425,0.173,0.645,0.173c0.446,0,0.879-0.232,1.118-0.645
		c0.356-0.618,0.145-1.406-0.472-1.763l-4.947-2.855c-0.617-0.358-1.406-0.145-1.763,0.472
		C227.763,15.404,227.974,16.192,228.59,16.55z"/>
	<path class="st5" d="M264.287,11.337c0.203,0.117,0.426,0.173,0.644,0.173c0.445,0,0.88-0.232,1.12-0.645l2.855-4.944
		c0.356-0.615,0.145-1.406-0.473-1.763c-0.617-0.356-1.406-0.145-1.763,0.473l-2.855,4.943
		C263.46,10.192,263.67,10.982,264.287,11.337z"/>
	<path class="st5" d="M277.511,14.315l-4.946,2.855c-0.618,0.357-0.829,1.145-0.473,1.763c0.239,0.413,0.672,0.645,1.119,0.645
		c0.219,0,0.44-0.055,0.644-0.173l4.946-2.854c0.616-0.357,0.828-1.146,0.472-1.763C278.917,14.17,278.129,13.957,277.511,14.315z"
		/>
	<path class="st5" d="M60.516,87.622h-4.58v-4.862c0-2.507-2.039-4.545-4.545-4.545H12.533c-0.006,0-0.011,0-0.011,0h-0.007
		l-0.003-0.001c-0.031,0-0.056,0.015-0.086,0.017c-0.136,0.009-0.272,0.028-0.401,0.081c-0.107,0.044-0.196,0.116-0.287,0.186
		c-0.041,0.032-0.09,0.046-0.128,0.084L0.574,89.404c-0.003,0.003-0.004,0.008-0.008,0.011c-0.003,0.003-0.004,0.007-0.007,0.01
		c-0.244,0.25-0.37,0.572-0.37,0.898c0,0.002-0.001,0.004-0.001,0.006v0.669c0,0.002-0.001,0.004-0.001,0.006
		s0.001,0.004,0.001,0.006v50.07c0,2.506,2.038,4.546,4.545,4.546h4.582v4.861c0,2.508,2.038,4.546,4.543,4.546h46.657
		c2.507,0,4.545-2.038,4.545-4.546V92.167C65.06,89.661,63.022,87.622,60.516,87.622z M11.222,82.577v5.172
		c0,1.082-0.881,1.964-1.965,1.964H3.946L11.222,82.577z M9.701,98.811c-0.258,0.253-0.385,0.587-0.385,0.921c0,0,0,0.002,0,0.002
		v0.663c0,0.004-0.002,0.008-0.002,0.012s0.002,0.008,0.002,0.012v42.621H4.734c-1.083,0-1.963-0.88-1.963-1.964V92.293h6.487
		c2.507,0,4.545-2.039,4.545-4.544v-6.954h37.589c1.083,0,1.965,0.882,1.965,1.965v4.862H21.659c0,0-0.011,0-0.017,0h-0.003
		c-0.013,0-0.023,0.007-0.036,0.007c-0.155,0.004-0.309,0.032-0.454,0.091c-0.104,0.043-0.189,0.114-0.277,0.18
		c-0.044,0.033-0.096,0.049-0.136,0.089l-0.01,0.009c0,0-0.001,0.001-0.001,0.001L9.701,98.811z M20.347,91.986v5.17
		c0,1.082-0.881,1.965-1.963,1.965h-5.312L20.347,91.986z M62.48,150.485c0,1.084-0.881,1.965-1.964,1.965H13.859
		c-1.083,0-1.965-0.882-1.965-1.965v-48.784h6.49c2.506,0,4.544-2.04,4.544-4.545v-6.953h37.588c1.083,0,1.964,0.882,1.964,1.964
		V150.485z"/>
	<path class="st5" d="M552.141,46.929H508.38c-4.3,0-7.8,3.499-7.8,7.801v85.715c0,4.302,3.5,7.8,7.8,7.8h43.761
		c4.301,0,7.8-3.499,7.8-7.8V54.73C559.941,50.427,556.442,46.929,552.141,46.929z M557.362,140.444c0,2.878-2.341,5.22-5.221,5.22
		H508.38c-2.878,0-5.219-2.343-5.219-5.22V54.73c0-2.879,2.341-5.22,5.219-5.22h43.761c2.88,0,5.221,2.341,5.221,5.22V140.444z"/>
	<path class="st5" d="M530.262,128.383c-3.603,0-6.535,2.932-6.535,6.534c0,3.601,2.932,6.531,6.535,6.531
		c3.6,0,6.53-2.93,6.53-6.531C536.792,131.315,533.862,128.383,530.262,128.383z M530.262,138.868c-2.18,0-3.953-1.772-3.953-3.95
		c0-2.179,1.773-3.952,3.953-3.952c2.178,0,3.951,1.773,3.951,3.952C534.213,137.096,532.44,138.868,530.262,138.868z"/>
	<path class="st5" d="M548.201,58.502h-35.88c-2.506,0-4.545,2.038-4.545,4.545v58.294c0,2.507,2.04,4.545,4.545,4.545h35.88
		c2.506,0,4.545-2.038,4.545-4.545V63.047C552.746,60.54,550.707,58.502,548.201,58.502z M550.166,121.341
		c0,1.084-0.882,1.966-1.965,1.966h-35.88c-1.083,0-1.964-0.881-1.964-1.966V63.047c0-1.083,0.882-1.965,1.964-1.965h35.88
		c1.083,0,1.965,0.881,1.965,1.965V121.341z"/>
	<path class="st5" d="M527.26,54.88h6.002c0.712,0,1.291-0.578,1.291-1.29c0-0.713-0.578-1.29-1.291-1.29h-6.002
		c-0.712,0-1.29,0.578-1.29,1.29C525.97,54.302,526.547,54.88,527.26,54.88z"/>
	<path class="st5" d="M481.957,31.311c-0.004-0.008-0.007-0.016-0.011-0.024c-0.834-1.832-1.824-3.987-3-6.527
		c-0.418-1.01-1.421-1.668-2.555-1.678c-1.116-0.009-2.098,0.593-2.497,1.524c-8.373,16.209-8.373,16.883-8.373,17.207
		l-0.151,101.165c0,0.081,0.005,0.161,0.017,0.241l-0.004,0.068c-0.008,0.112-0.013,0.221-0.013,0.35
		c0,5.753,4.68,10.44,10.434,10.449c2.787,0.003,5.411-1.081,7.39-3.054c1.98-1.972,3.073-4.594,3.076-7.4
		c0-0.098-0.006-0.193-0.014-0.319l-0.005-0.042c0.013-0.087,0.021-0.175,0.021-0.264l0.009-6.095
		c0.044-0.39,0.072-0.784,0.072-1.186v-0.13h-0.07l0.141-93.753C486.423,41.592,486.422,41.109,481.957,31.311z M475.875,25.546
		c0.105-0.242,0.384-0.268,0.498-0.268c0.156,0.003,0.435,0.053,0.563,0.363c0.632,1.366,1.361,2.952,2.109,4.588l-5.566-0.008
		C474.318,28.576,475.144,26.965,475.875,25.546z M472.29,32.561c0.163-0.087,0.343-0.148,0.538-0.148l6.785,0.012
		c0.175,0,0.338,0.05,0.489,0.122c1.661,3.655,3.227,7.16,3.858,8.714l-3.609,3.596l-3.796-3.807
		c-0.213-0.213-0.494-0.319-0.775-0.32c-0.281,0-0.562,0.105-0.777,0.318c-0.001,0.001-0.001,0.003-0.002,0.003l-3.804,3.792
		l-3.308-3.318C468.485,40.145,470.312,36.466,472.29,32.561z M484.068,143.489c0.002,0.046,0.005,0.091,0.005,0.155
		c0,0,0,0.001,0,0.003c-0.002,2.202-0.866,4.272-2.429,5.831c-1.561,1.559-3.636,2.415-5.836,2.412
		c-4.544-0.006-8.244-3.71-8.244-8.263l0.024-0.485l-0.023-0.15l0.001-0.989c1.909,2.53,4.93,4.176,8.336,4.176
		c3.307,0,6.254-1.549,8.171-3.955l-0.001,0.774l-0.021,0.189L484.068,143.489z M484.081,136.784
		c-0.522,4.053-3.987,7.199-8.179,7.199c-4.551,0-8.255-3.704-8.255-8.256v-0.13h-0.071l0.137-91.138l2.704,2.711
		c0.208,0.207,0.481,0.321,0.773,0.324c0.294,0,0.571-0.113,0.778-0.321l3.81-3.794l3.795,3.804
		c0.206,0.208,0.482,0.323,0.777,0.323c0.293,0,0.569-0.113,0.774-0.321l3.1-3.089L484.081,136.784z"/>
	<path class="st5" d="M478.338,55.093c-0.605,0-1.1,0.493-1.101,1.1l-0.066,77.523c0,0.605,0.493,1.096,1.099,1.098
		c0.292,0.001,0.568-0.113,0.776-0.32c0.207-0.207,0.322-0.483,0.322-0.774l0.066-77.525
		C479.433,55.588,478.941,55.093,478.338,55.093z"/>
	<path class="st5" d="M474.008,55.088c-0.604,0-1.097,0.492-1.099,1.099l-0.065,77.524c0,0.604,0.493,1.097,1.096,1.097
		c0.606,0,1.099-0.491,1.099-1.097l0.066-77.523C475.105,55.582,474.612,55.088,474.008,55.088z"/>
	<path class="st5" d="M597.194,56.232c-9.708,0-17.605,7.897-17.605,17.604c0,0.712,0.578,1.29,1.29,1.29
		c0.713,0,1.291-0.578,1.291-1.29c0-8.284,6.74-15.024,15.025-15.024c8.283,0,15.022,6.74,15.022,15.024
		c0,0.712,0.577,1.29,1.29,1.29s1.291-0.578,1.291-1.29C614.797,64.129,606.9,56.232,597.194,56.232z"/>
	<path class="st5" d="M597.194,48.056c-14.078,0-25.529,11.454-25.529,25.529c0,0.713,0.577,1.29,1.29,1.29
		c0.713,0,1.29-0.577,1.29-1.29c0-12.653,10.295-22.948,22.949-22.948c12.653,0,22.948,10.294,22.948,22.948
		c0,0.713,0.578,1.29,1.29,1.29c0.714,0,1.291-0.577,1.291-1.29C622.723,59.51,611.27,48.056,597.194,48.056z"/>
	<path class="st5" d="M598.843,83.332c4.534-0.786,7.996-4.74,7.996-9.496c0-5.319-4.328-9.648-9.646-9.648
		c-5.32,0-9.648,4.329-9.648,9.648c0,4.69,3.366,8.605,7.808,9.467l-15.919,58.096c-0.188,0.688,0.216,1.398,0.903,1.586
		c0.114,0.031,0.229,0.045,0.341,0.045c0.567,0,1.086-0.376,1.244-0.95l4.51-16.459c0.205-0.006,0.412-0.056,0.602-0.164
		l10.064-5.736l10.065,5.736c0.186,0.106,0.387,0.155,0.588,0.163l4.509,16.46c0.158,0.574,0.677,0.95,1.244,0.95
		c0.113,0,0.228-0.014,0.341-0.045c0.688-0.188,1.093-0.898,0.905-1.586L598.843,83.332z M590.126,73.836
		c0-3.897,3.171-7.068,7.068-7.068c3.896,0,7.066,3.171,7.066,7.068c0,3.897-3.17,7.067-7.066,7.067
		C593.297,80.903,590.126,77.733,590.126,73.836z M587.339,122.312l1.932-7.051l5.221,2.975L587.339,122.312z M597.098,116.751
		l-7.123-4.059l7.119-25.982l7.119,25.986L597.098,116.751z M599.704,118.236l5.212-2.97l1.928,7.039L599.704,118.236z"/>
	<path class="st5" d="M446.103,122.397h-12.948c-0.712,0-1.291,0.579-1.291,1.292c0,0.712,0.578,1.289,1.291,1.289h12.948
		c5.594,0,10.145,4.552,10.145,10.148c0,5.557-4.487,10.079-10.027,10.143c-0.748-6.874-6.582-12.241-13.648-12.241h-5.881
		c-5.464,0-8.726,2.594-8.726,6.941v0.124h-6.35c-0.712,0-1.289,0.577-1.289,1.29c0,0.712,0.577,1.29,1.289,1.29h6.35v8.947h-6.35
		c-0.712,0-1.289,0.578-1.289,1.29c0,0.712,0.577,1.29,1.289,1.29h6.35v0.103c0,6.195,6.34,6.195,8.726,6.195h5.834
		c0.015,0,0.029,0,0.047,0c7.206,0,13.122-5.584,13.679-12.651c6.947-0.081,12.578-5.753,12.578-12.722
		C458.829,128.109,453.119,122.397,446.103,122.397z M432.631,157.918c-0.057-0.004-0.109-0.004-0.168,0h-5.772
		c-5.118,0-6.146-1.382-6.146-3.614V139.97c0-2.895,2.067-4.362,6.146-4.362h5.881c1.936,0,3.758,0.498,5.347,1.37v19.241
		c0,0.105,0.036,0.198,0.06,0.296C436.392,157.398,434.57,157.908,432.631,157.918z M440.5,154.6v-15.671
		c1.992,2.016,3.225,4.784,3.225,7.835C443.725,149.815,442.492,152.584,440.5,154.6z"/>
	<path class="st5" d="M405.722,85.612v15.54h-15.538c-0.712,0-1.29,0.577-1.29,1.29c0,9.991,8.128,18.119,18.12,18.119
		c9.99,0,18.118-8.128,18.118-18.119c0-9.991-8.128-18.12-18.118-18.12C406.3,84.322,405.722,84.899,405.722,85.612z
		 M408.302,102.442V86.956c7.967,0.657,14.25,7.352,14.25,15.486c0,8.568-6.971,15.538-15.539,15.538
		c-8.133,0-14.828-6.282-15.485-14.248h15.485C407.725,103.732,408.302,103.155,408.302,102.442z"/>
	<path class="st5" d="M377.831,143.688h-24.334v-5.024h-2.58v5.024h-24.333c-4.136,0-7.344,4.653-7.344,8.654
		c0,0.713,0.578,1.292,1.29,1.292h63.354c0.713,0,1.291-0.579,1.291-1.292C385.174,148.34,381.966,143.688,377.831,143.688z
		 M321.977,151.052c0.551-2.364,2.479-4.784,4.607-4.784h51.247c2.127,0,4.057,2.42,4.607,4.784H321.977z"/>
	<path class="st5" d="M285.508,89.929c-0.713,0-1.29,0.578-1.29,1.29v8.815c0,0.713,0.578,1.29,1.29,1.29
		c0.713,0,1.291-0.578,1.291-1.29v-8.815C286.798,90.508,286.221,89.929,285.508,89.929z"/>
	<path class="st5" d="M297.298,83.274v16.76c0,0.713,0.578,1.29,1.29,1.29c0.713,0,1.291-0.578,1.291-1.29v-16.76
		c0-0.712-0.577-1.29-1.291-1.29C297.876,81.985,297.298,82.563,297.298,83.274z"/>
	<path class="st5" d="M304.403,87.539v12.496c0,0.713,0.578,1.29,1.29,1.29c0.713,0,1.29-0.578,1.29-1.29V87.539
		c0-0.712-0.577-1.29-1.29-1.29C304.981,86.249,304.403,86.827,304.403,87.539z"/>
	<path class="st5" d="M317.913,87.539v12.496c0,0.713,0.578,1.29,1.29,1.29c0.713,0,1.29-0.578,1.29-1.29V87.539
		c0-0.712-0.577-1.29-1.29-1.29C318.492,86.249,317.913,86.827,317.913,87.539z"/>
	<path class="st5" d="M311.275,82.52v17.514c0,0.713,0.578,1.29,1.29,1.29c0.713,0,1.291-0.578,1.291-1.29V82.52
		c0-0.713-0.578-1.292-1.291-1.292C311.852,81.228,311.275,81.807,311.275,82.52z"/>
	<path class="st5" d="M375.398,157.17h-46.379c-0.712,0-1.29,0.577-1.29,1.29c0,0.713,0.578,1.29,1.29,1.29h46.379
		c0.712,0,1.29-0.577,1.29-1.29C376.687,157.747,376.11,157.17,375.398,157.17z"/>
	<path class="st5" d="M337.435,75.995c-2.189,0-3.97,1.782-3.97,3.972v37.296c0,2.19,1.781,3.971,3.97,3.971h29.545
		c2.189,0,3.972-1.781,3.972-3.971V79.966c0-2.19-1.782-3.972-3.972-3.972H337.435z M368.37,79.966v37.296
		c0,0.767-0.624,1.391-1.391,1.391h-29.545c-0.767,0-1.391-0.624-1.391-1.391V79.966c0-0.768,0.624-1.392,1.391-1.392h29.545
		C367.746,78.575,368.37,79.199,368.37,79.966z"/>
	<path class="st5" d="M350.194,99.637c0.66,0.178,1.339,0.268,2.016,0.268c3.487,0,6.56-2.355,7.467-5.726
		c0.538-1.996,0.267-4.082-0.765-5.874c-1.031-1.792-2.698-3.074-4.691-3.61c-0.661-0.179-1.34-0.269-2.02-0.269
		c-3.487,0-6.557,2.355-7.465,5.726C343.626,94.269,346.075,98.524,350.194,99.637z M347.228,90.823
		c0.605-2.248,2.65-3.816,4.973-3.816c0.452,0,0.905,0.059,1.348,0.179c1.33,0.358,2.44,1.213,3.127,2.406
		c0.688,1.195,0.868,2.585,0.51,3.916c-0.605,2.247-2.652,3.817-4.975,3.817c-0.45,0-0.903-0.06-1.344-0.179
		C348.122,96.403,346.489,93.568,347.228,90.823z"/>
	<path class="st5" d="M352.205,101.002c-4.993,0-9.056,4.064-9.056,9.058c0,0.712,0.577,1.29,1.29,1.29h15.535
		c0.712,0,1.29-0.578,1.29-1.29C361.265,105.066,357.201,101.002,352.205,101.002z M345.86,108.769
		c0.599-2.954,3.217-5.186,6.345-5.186c3.13,0,5.75,2.232,6.35,5.186H345.86z"/>
	<path class="st5" d="M402.005,95.953V79.125c0-0.713-0.578-1.291-1.29-1.291c-9.991,0-18.12,8.129-18.12,18.119
		c0,0.714,0.577,1.291,1.289,1.291h16.831C401.426,97.243,402.005,96.666,402.005,95.953z M399.424,94.663h-14.195
		c0.623-7.541,6.655-13.572,14.195-14.195V94.663z"/>
	<path class="st5" d="M413.825,129.512v-8.37c-0.838,0.306-1.696,0.57-2.582,0.763v7.607c0,2.627-2.136,4.763-4.762,4.763H297.934
		c-2.626,0-4.764-2.136-4.764-4.763v-17.526c0.005-0.045,0.026-0.085,0.026-0.131V74.426c0-0.047-0.021-0.086-0.026-0.131v-8.592v0
		c0-2.626,2.137-4.764,4.764-4.764h108.547c2.626,0,4.762,2.138,4.762,4.764v17.275c0.886,0.193,1.744,0.456,2.582,0.763V65.702
		c0-4.05-3.295-7.344-7.344-7.344H297.934c-4.049,0-7.344,3.294-7.344,7.344v0v63.81c0,4.05,3.295,7.344,7.344,7.344h108.547
		C410.53,136.856,413.825,133.562,413.825,129.512z"/>
</g>
</svg>
